<?xml version="1.0" encoding="UTF-8"?>
<svg width="590px" height="162px" viewBox="0 0 590 162" version="1.1" xmlns="http://www.w3.org/2000/svg" xmlns:xlink="http://www.w3.org/1999/xlink">
    <title>Group</title>
    <g id="FINAL-PRINT" stroke="none" stroke-width="1" fill="none" fill-rule="evenodd">
        <g id="Ermir-BC-Back" transform="translate(-246, -223)">
            <g id="Group" transform="translate(246, 223)">
                <g transform="translate(-14, -14)">
                    <polygon id="Rectangle-4-Copy-3" fill="#414141" points="603.656832 40.774686 325.043903 40.774686 300.262928 175.541925 603.656832 175.541925"></polygon>
                    <g id="pro" transform="translate(309.1797, 65.5557)" fill="#FFFFFF" fill-rule="nonzero">
                        <path d="M3.18612536,1.1834068 L47.3198618,1.1834068 C58.490968,1.1834068 67.3413162,3.90524243 73.8709064,9.3489137 C80.4004966,14.792585 83.6652918,21.7746851 83.6652918,30.295214 C83.6652918,38.815743 80.9118501,45.5808852 75.4049668,50.5906406 C69.8980834,55.6003961 60.5363818,58.1052738 47.3198618,58.1052738 L31.7432489,58.1052738 L31.7432489,80.8266843 C31.7432489,81.694516 31.4285699,82.4440069 30.7992118,83.0751572 C30.1698537,83.7063075 29.4224909,84.0218827 28.5571236,84.0218827 L3.18612536,84.0218827 C2.32075798,84.0218827 1.57339524,83.7063075 0.944037143,83.0751572 C0.314679048,82.4440069 0,81.694516 0,80.8266843 L0,4.37860515 C0,3.5107735 0.314679048,2.76128253 0.944037143,2.13013224 C1.57339524,1.49898194 2.32075798,1.1834068 3.18612536,1.1834068 Z M31.8612536,23.1947732 L31.8612536,36.212248 L46.8478432,36.212248 C48.6572477,36.212248 50.1323058,35.6599915 51.2730173,34.5554785 C52.4137289,33.4509655 52.9840846,31.9125367 52.9840846,29.940192 C52.9840846,27.9678473 52.4333963,26.3505247 51.3320196,25.0882241 C50.230643,23.8259235 48.7359175,23.1947732 46.8478432,23.1947732 L31.8612536,23.1947732 Z" id="Shape"></path>
                        <path d="M176.650636,80.3533216 C176.807976,80.6688967 176.886646,81.1028126 176.886646,81.6550691 C176.886646,82.2073256 176.630969,82.7398586 176.119616,83.2526682 C175.608262,83.7654779 174.998571,84.0218827 174.290544,84.0218827 L147.50349,84.0218827 C145.143397,84.0218827 143.491332,83.0357103 142.547295,81.0633657 L132.162886,57.6319111 L122.250496,57.6319111 L122.250496,80.8266843 C122.250496,81.694516 121.935817,82.4440069 121.306459,83.0751572 C120.677101,83.7063075 119.929738,84.0218827 119.064371,84.0218827 L93.5753679,84.0218827 C92.7100006,84.0218827 91.9626378,83.7063075 91.3332797,83.0751572 C90.7039216,82.4440069 90.3892426,81.694516 90.3892426,80.8266843 L90.3892426,4.37860515 C90.3892426,3.5107735 90.7039216,2.76128253 91.3332797,2.13013224 C91.9626378,1.49898194 92.7100006,1.1834068 93.5753679,1.1834068 L139.479174,1.1834068 C150.256931,1.1834068 158.792601,3.74745486 165.086181,8.87555099 C171.379762,14.0036471 174.526553,20.9857472 174.526553,29.8218513 C174.526553,40.5514063 170.39639,48.3224443 162.136065,53.1349652 L176.650636,80.3533216 Z M122.250496,23.1947732 L122.250496,35.7388853 L137.001077,35.7388853 C138.731811,35.7388853 140.069197,35.1669053 141.013234,34.0229454 C141.957272,32.8789855 142.42929,31.4391739 142.42929,29.7035106 C142.42929,27.9678473 141.976939,26.4491419 141.072237,25.1473945 C140.167534,23.845647 138.810481,23.1947732 137.001077,23.1947732 L122.250496,23.1947732 Z" id="Shape"></path>
                        <path d="M268.219926,35.3838633 L268.219926,49.8214262 C268.219926,57.9474862 266.253181,64.7323519 262.319693,70.1760231 C258.386205,75.6196944 253.233336,79.4854899 246.861085,81.7734097 C240.488834,84.0613296 232.975872,85.2052895 224.322198,85.2052895 C215.668525,85.2052895 208.155562,84.0613296 201.783312,81.7734097 C195.411061,79.4854899 190.258191,75.6196944 186.324703,70.1760231 C182.391215,64.7323519 180.424471,57.8685924 180.424471,49.5847448 L180.424471,35.6205446 C180.424471,23.7075829 184.495631,14.792585 192.637952,8.87555099 C200.780272,2.958517 211.341688,0 224.322198,0 C237.302709,0 247.864125,2.958517 256.006445,8.87555099 C264.148765,14.792585 268.219926,23.6286891 268.219926,35.3838633 Z M212.285725,33.1353903 L212.285725,52.0698991 C212.285725,55.3045444 213.367434,57.7896986 215.530852,59.5253619 C217.694271,61.2610252 220.62472,62.1288569 224.322198,62.1288569 C228.019677,62.1288569 230.950126,61.2413018 233.113544,59.4661916 C235.276963,57.6910814 236.358672,55.1862037 236.358672,51.9515584 L236.358672,33.253731 C236.358672,30.0190858 235.276963,27.5142081 233.113544,25.7390979 C230.950126,23.9639877 228.019677,23.0764326 224.322198,23.0764326 C220.62472,23.0764326 217.694271,23.9442642 215.530852,25.6799275 C213.367434,27.4155908 212.285725,29.9007451 212.285725,33.1353903 Z" id="Shape"></path>
                    </g>
                    <g transform="translate(14.8137, 14.8137)">
                        <polygon id="Rectangle-4-Copy-3" fill="#384F7D" points="4.32070275e-13 1.33801017e-12 315.190401 1.33801017e-12 290.409426 134.767239 4.32070275e-13 134.767239"></polygon>
                        <g id="beE" transform="translate(26.551, 25.961)" fill="#FFFFFF" fill-rule="nonzero">
                            <path d="M85.0813475,56.8081348 C85.0813475,74.166176 73.9889111,82.8451966 51.8040382,82.8451966 L3.18612536,82.8451966 C2.32075798,82.8451966 1.57339524,82.5295959 0.944037143,81.8983944 C0.314679048,81.2671929 0,80.5176411 0,79.649739 L0,3.19545758 C0,2.32755552 0.314679048,1.57800374 0.944037143,0.946802247 C1.57339524,0.315600749 2.32075798,0 3.18612536,0 L50.6239918,0 C61.795098,0 70.0357555,2.03167982 75.3459644,6.09503946 C80.6561734,10.1583991 83.3112778,16.2928887 83.3112778,24.4985081 L83.3112778,24.853559 C83.3112778,28.640768 82.2885709,31.8756756 80.2431571,34.558282 C78.1977433,37.2408884 76.0736597,38.9372424 73.8709064,39.6473441 C76.9390271,40.5941463 79.5744641,42.6652763 81.7772175,45.8607338 C83.9799708,49.0561914 85.0813475,52.7053251 85.0813475,56.8081348 Z M30.6812071,50.8906208 L30.6812071,62.4889483 L47.7918803,62.4889483 C49.6012849,62.4889483 50.9583383,61.8774718 51.8630405,60.6545189 C52.7677428,59.431566 53.2200939,58.0705378 53.2200939,56.5714343 L53.2200939,56.453084 C53.2200939,54.9539804 52.7284079,53.6521273 51.7450359,52.5475247 C50.7616639,51.4429221 49.4439453,50.8906208 47.7918803,50.8906208 L30.6812071,50.8906208 Z M50.0339686,29.4692199 C50.8993359,28.2857171 51.3320196,26.983864 51.3320196,25.5636607 C51.3320196,24.1434573 50.9190034,22.9205044 50.0929709,21.894802 C49.2669384,20.8690995 48.0672245,20.3562483 46.4938293,20.3562483 L30.6812071,20.3562483 L30.6812071,31.1261239 L46.4938293,31.1261239 C48.0672245,31.1261239 49.2472709,30.5738226 50.0339686,29.4692199 Z" id="Shape"></path>
                            <path d="M125.674945,59.7668918 L172.758797,59.7668918 C173.624164,59.7668918 174.371527,60.0824926 175.000885,60.7136941 C175.630243,61.3448956 175.944922,62.0944474 175.944922,62.9623494 L175.944922,79.649739 C175.944922,80.5176411 175.630243,81.2671929 175.000885,81.8983944 C174.371527,82.5295959 173.624164,82.8451966 172.758797,82.8451966 L98.1798628,82.8451966 C97.3144955,82.8451966 96.5671327,82.5295959 95.9377746,81.8983944 C95.3084165,81.2671929 94.9937375,80.5176411 94.9937375,79.649739 L94.9937375,3.19545758 C94.9937375,2.32755552 95.3084165,1.57800374 95.9377746,0.946802247 C96.5671327,0.315600749 97.3144955,0 98.1798628,0 L171.578751,0 C172.444118,0 173.191481,0.315600749 173.820839,0.946802247 C174.450197,1.57800374 174.764876,2.32755552 174.764876,3.19545758 L174.764876,19.8828472 C174.764876,20.7507492 174.450197,21.500301 173.820839,22.1315025 C173.191481,22.762704 172.444118,23.0783048 171.578751,23.0783048 L125.674945,23.0783048 L125.674945,30.5343725 L165.088495,30.5343725 C165.953863,30.5343725 166.701225,30.8499732 167.330584,31.4811747 C167.959942,32.1123762 168.274621,32.861928 168.274621,33.72983 L168.274621,49.1153666 C168.274621,49.9832686 167.959942,50.7328204 167.330584,51.3640219 C166.701225,51.9952234 165.953863,52.3108241 165.088495,52.3108241 L125.674945,52.3108241 L125.674945,59.7668918 Z" id="Path"></path>
                            <path d="M220.078659,59.7668918 L273.534762,59.7668918 L269.4046,82.8451966 L192.583577,82.8451966 C191.71821,82.8451966 190.970847,82.5295959 190.341489,81.8983944 C189.712131,81.2671929 189.397452,80.5176411 189.397452,79.649739 L189.397452,3.19545758 C189.397452,2.32755552 189.712131,1.57800374 190.341489,0.946802247 C190.970847,0.315600749 191.71821,0 192.583577,0 L265.982465,0 C266.847832,0 267.595195,0.315600749 268.224553,0.946802247 C268.853911,1.57800374 269.16859,2.32755552 269.16859,3.19545758 L269.16859,19.8828472 C269.16859,20.7507492 268.853911,21.500301 268.224553,22.1315025 C267.595195,22.762704 266.847832,23.0783048 265.982465,23.0783048 L220.078659,23.0783048 L220.078659,30.5343725 L259.49221,30.5343725 C260.357577,30.5343725 261.10494,30.8499732 261.734298,31.4811747 C262.363656,32.1123762 262.678335,32.861928 262.678335,33.72983 L262.678335,49.1153666 C262.678335,49.9832686 262.363656,50.7328204 261.734298,51.3640219 C261.10494,51.9952234 260.357577,52.3108241 259.49221,52.3108241 L220.078659,52.3108241 L220.078659,59.7668918 Z" id="Path"></path>
                        </g>
                    </g>
                </g>
            </g>
        </g>
    </g>
</svg>